<mxfile host="app.diagrams.net" modified="2022-07-28T15:18:13.930Z" agent="5.0 (Macintosh; Intel Mac OS X 10_15_7) AppleWebKit/537.36 (KHTML, like Gecko) Chrome/103.0.5060.134 Safari/537.36" etag="z_WI7d-yuHKFRXMjuUvM" version="20.2.2" type="github">
  <diagram id="3228e29e-7158-1315-38df-8450db1d8a1d" name="Page-1">
    <mxGraphModel dx="1298" dy="349" grid="0" gridSize="10" guides="1" tooltips="1" connect="1" arrows="1" fold="1" page="1" pageScale="1" pageWidth="1600" pageHeight="350" background="#EFF1F3" math="0" shadow="0">
      <root>
        <mxCell id="0" />
        <mxCell id="1" parent="0" />
        <mxCell id="LAb_7srbYK68rinMSWDs-9" value="" style="shape=flexArrow;endArrow=classic;startArrow=classic;html=1;shadow=0;startSize=5;sourcePerimeterSpacing=0;targetPerimeterSpacing=0;strokeColor=#FDD276;strokeWidth=10;fillColor=#FDD276;endSize=5;" parent="1" edge="1">
          <mxGeometry width="50" height="50" relative="1" as="geometry">
            <mxPoint x="493" y="565" as="sourcePoint" />
            <mxPoint x="1055" y="564" as="targetPoint" />
          </mxGeometry>
        </mxCell>
        <mxCell id="akXekNuT1dLQZ7H765rd-4" value="&lt;font style=&quot;font-size: 55px&quot;&gt;用户A&lt;/font&gt;" style="text;html=1;strokeColor=none;fillColor=none;align=center;verticalAlign=middle;whiteSpace=wrap;rounded=0;" parent="1" vertex="1">
          <mxGeometry x="215.5" y="423" width="169" height="60" as="geometry" />
        </mxCell>
        <mxCell id="akXekNuT1dLQZ7H765rd-5" value="&lt;font style=&quot;font-size: 55px&quot;&gt;用户B&lt;/font&gt;" style="text;html=1;strokeColor=none;fillColor=none;align=center;verticalAlign=middle;whiteSpace=wrap;rounded=0;" parent="1" vertex="1">
          <mxGeometry x="1167.5" y="423" width="169" height="60" as="geometry" />
        </mxCell>
        <mxCell id="akXekNuT1dLQZ7H765rd-6" value="" style="shape=image;verticalLabelPosition=bottom;verticalAlign=top;imageAspect=0;aspect=fixed;image=data:image/svg+xml,PHN2ZyB4bWxuczp4bGluaz0iaHR0cDovL3d3dy53My5vcmcvMTk5OS94bGluayIgeG1sbnM9Imh0dHA6Ly93d3cudzMub3JnLzIwMDAvc3ZnIiBoZWlnaHQ9IjIwMCIgd2lkdGg9IjIwMCIgdmVyc2lvbj0iMS4xIiB2aWV3Qm94PSIwIDAgMTAyNCAxMDI0IiBjbGFzcz0iaWNvbiI+PGRlZnM+PHN0eWxlIHR5cGU9InRleHQvY3NzIj5AZm9udC1mYWNlIHsgZm9udC1mYW1pbHk6IGZlZWRiYWNrLWljb25mb250OyBzcmM6IHVybCgiLy9hdC5hbGljZG4uY29tL3QvZm9udF8xMDMxMTU4X3U2OXc4eWh4ZHUud29mZjI/dD0xNjMwMDMzNzU5OTQ0IikgZm9ybWF0KCJ3b2ZmMiIpLCB1cmwoIi8vYXQuYWxpY2RuLmNvbS90L2ZvbnRfMTAzMTE1OF91Njl3OHloeGR1LndvZmY/dD0xNjMwMDMzNzU5OTQ0IikgZm9ybWF0KCJ3b2ZmIiksIHVybCgiLy9hdC5hbGljZG4uY29tL3QvZm9udF8xMDMxMTU4X3U2OXc4eWh4ZHUudHRmP3Q9MTYzMDAzMzc1OTk0NCIpIGZvcm1hdCgidHJ1ZXR5cGUiKTsgfSYjeGE7PC9zdHlsZT48L2RlZnM+PHBhdGggZmlsbD0iIzRBOTE5QiIgZD0iTTY3MC43MiAzODkuMTJhNi4xNDQgNi4xNDQgMCAwIDAgNS43MzQ0LTguNjAxNiA1MC41ODU2IDUwLjU4NTYgMCAwIDAtOTEuNzUwNCAwIDYuMTQ0IDYuMTQ0IDAgMCAwIDUuNzM0NCA4LjYwMTZ6Ii8+PHBhdGggZmlsbD0iIzRBOTE5QiIgZD0iTTYzMC41NzkyIDMxOC40NjRtLTMxLjc0NCAwYTMxLjc0NCAzMS43NDQgMCAxIDAgNjMuNDg4IDAgMzEuNzQ0IDMxLjc0NCAwIDEgMC02My40ODggMFoiLz48cGF0aCBmaWxsPSIjNEE5MTlCIiBkPSJNMzY3LjQxMTIgMjk2Ljk2bTE1LjM2IDBsMTA3LjcyNDggMHExNS4zNiAwIDE1LjM2IDE1LjM2bDAgMHEwIDE1LjM2LTE1LjM2IDE1LjM2bC0xMDcuNzI0OCAwcS0xNS4zNiAwLTE1LjM2LTE1LjM2bDAgMHEwLTE1LjM2IDE1LjM2LTE1LjM2WiIvPjxwYXRoIGZpbGw9IiM0QTkxOUIiIGQ9Ik0zNjcuNDExMiAzNTguNG0xNS4zNiAwbDEwNy43MjQ4IDBxMTUuMzYgMCAxNS4zNiAxNS4zNmwwIDBxMCAxNS4zNi0xNS4zNiAxNS4zNmwtMTA3LjcyNDggMHEtMTUuMzYgMC0xNS4zNi0xNS4zNmwwIDBxMC0xNS4zNiAxNS4zNi0xNS4zNloiLz48cGF0aCBmaWxsPSIjNEE5MTlCIiBkPSJNMzY3LjQxMTIgNDE5Ljg0bTE1LjM2IDBsMjEwLjEyNDggMHExNS4zNiAwIDE1LjM2IDE1LjM2bDAgMHEwIDE1LjM2LTE1LjM2IDE1LjM2bC0yMTAuMTI0OCAwcS0xNS4zNiAwLTE1LjM2LTE1LjM2bDAgMHEwLTE1LjM2IDE1LjM2LTE1LjM2WiIvPjxwYXRoIGZpbGw9IiM0QTkxOUIiIGQ9Ik03NDQuNjUyOCA5NDIuMDhIMjk5LjgyNzJBOTUuMDI3MiA5NS4wMjcyIDAgMCAxIDIwNC44IDg0Ny4wNTI4VjE3Ni45NDcyQTk1LjAyNzIgOTUuMDI3MiAwIDAgMSAyOTkuODI3MiA4MS45Mmg0NDQuODI1NkE5NS4wMjcyIDk1LjAyNzIgMCAwIDEgODM5LjY4IDE3Ni45NDcydjY3MC4xMDU2QTk1LjAyNzIgOTUuMDI3MiAwIDAgMSA3NDQuNjUyOCA5NDIuMDh6TTI5OS44MjcyIDEyMi44OEE1NC4wNjcyIDU0LjA2NzIgMCAwIDAgMjQ1Ljc2IDE3Ni45NDcydjY3MC4xMDU2QTU0LjA2NzIgNTQuMDY3MiAwIDAgMCAyOTkuODI3MiA5MDEuMTJoNDQ0LjgyNTZBNTQuMDY3MiA1NC4wNjcyIDAgMCAwIDc5OC43MiA4NDcuMDUyOFYxNzYuOTQ3MkE1NC4wNjcyIDU0LjA2NzIgMCAwIDAgNzQ0LjY1MjggMTIyLjg4eiIvPjxwYXRoIGZpbGw9IiM0QTkxOUIiIGQ9Ik02NjEuMjk5MiA1MzIuNDhIMzgzLjE4MDhBOTYuNjY1NiA5Ni42NjU2IDAgMCAxIDI4Ni43MiA0MzYuMDE5MnYtMTM0Ljc1ODRBOTYuNDYwOCA5Ni40NjA4IDAgMCAxIDM4My4xODA4IDIwNC44aDI3OC4xMTg0QTk2LjQ2MDggOTYuNDYwOCAwIDAgMSA3NTcuNzYgMzAxLjI2MDh2MTM0Ljc1ODRBOTYuNjY1NiA5Ni42NjU2IDAgMCAxIDY2MS4yOTkyIDUzMi40OHpNMzgzLjE4MDggMjQ1Ljc2QTU1LjUwMDggNTUuNTAwOCAwIDAgMCAzMjcuNjggMzAxLjI2MDh2MTM0Ljc1ODRBNTUuNTAwOCA1NS41MDA4IDAgMCAwIDM4My4xODA4IDQ5MS41MmgyNzguMTE4NEE1NS41MDA4IDU1LjUwMDggMCAwIDAgNzE2LjggNDM2LjAxOTJ2LTEzNC43NTg0QTU1LjUwMDggNTUuNTAwOCAwIDAgMCA2NjEuMjk5MiAyNDUuNzZ6TTU3OS45OTM2IDY3NC40MDY0YTEwMi40IDEwMi40IDAgMCAxIDExLjI2NCAwYy0xMC4wMzUyLTQ2LjY5NDQtNTkuODAxNi04MS45Mi0xMTYuNzM2LTgxLjkyLTYzLjQ4OCAwLTExNS43MTIgNDMuNDE3Ni0xMTUuNzEyIDk4LjMwNGE5NC44MjI0IDk0LjgyMjQgMCAwIDAgNDYuMjg0OCA3OC4wMjg4bC0xMS40Njg4IDM0LjgxNiA0MC45Ni0yMC40OGExOTkuMDY1NiAxOTkuMDY1NiAwIDAgMCA0MC45NiA1LjczNDRoMTAuODU0NGE4Ni42MzA0IDg2LjYzMDQgMCAwIDEtMy40ODE2LTI0LjE2NjQgOTQuODIyNCA5NC44MjI0IDAgMCAxIDk4LjMwNC05MS41NDU2eiBtLTYxLjQ0LTMxLjMzNDRhMTQuNTQwOCAxNC41NDA4IDAgMSAxIDAgMjguODc2OCAxNC43NDU2IDE0Ljc0NTYgMCAxIDEgMC0yOC44NzY4eiBtLTgxLjkyIDI4Ljg3NjhhMTQuNzQ1NiAxNC43NDU2IDAgMSAxIDAtMjguODc2OCAxNC41NDA4IDE0LjU0MDggMCAwIDEgMCAyOC44NzY4eiBtMjQ4LjYyNzIgOTIuNTY5NmMwLTQ2LjI4NDgtNDYuMjg0OC04My45NjgtOTguMzA0LTgzLjk2OHMtOTguMzA0IDM3LjY4MzItOTguMzA0IDgzLjk2OCA0My40MTc2IDgzLjk2OCA5OC4zMDQgODMuOTY4YTE0NS4yMDMyIDE0NS4yMDMyIDAgMCAwIDM0LjYxMTItNS43MzQ0bDMxLjc0NCAxNy40MDgtOC42MDE2LTI4Ljg3NjhhODcuNjU0NCA4Ny42NTQ0IDAgMCAwIDQwLjk2LTY2LjU2eiBtLTEzMC4yNTI4LTE0LjU0MDhhMTEuNDY4OCAxMS40Njg4IDAgMSAxIDAtMjMuMTQyNCAxMS44Nzg0IDExLjg3ODQgMCAxIDEgMCAyMy4xNDI0eiBtNjMuNjkyOCAwYTExLjQ2ODggMTEuNDY4OCAwIDAgMSAwLTIzLjE0MjQgMTEuODc4NCAxMS44Nzg0IDAgMSAxIDAgMjMuMTQyNHogbTAgMCIvPjwvc3ZnPg==" parent="1" vertex="1">
          <mxGeometry x="197" y="483" width="200" height="200" as="geometry" />
        </mxCell>
        <mxCell id="akXekNuT1dLQZ7H765rd-7" value="" style="shape=image;verticalLabelPosition=bottom;verticalAlign=top;imageAspect=0;aspect=fixed;image=data:image/svg+xml,PHN2ZyB4bWxuczp4bGluaz0iaHR0cDovL3d3dy53My5vcmcvMTk5OS94bGluayIgeG1sbnM9Imh0dHA6Ly93d3cudzMub3JnLzIwMDAvc3ZnIiBoZWlnaHQ9IjIwMCIgd2lkdGg9IjIwMCIgdmVyc2lvbj0iMS4xIiB2aWV3Qm94PSIwIDAgMTAyNCAxMDI0IiBjbGFzcz0iaWNvbiI+PGRlZnM+PHN0eWxlIHR5cGU9InRleHQvY3NzIj5AZm9udC1mYWNlIHsgZm9udC1mYW1pbHk6IGZlZWRiYWNrLWljb25mb250OyBzcmM6IHVybCgiLy9hdC5hbGljZG4uY29tL3QvZm9udF8xMDMxMTU4X3U2OXc4eWh4ZHUud29mZjI/dD0xNjMwMDMzNzU5OTQ0IikgZm9ybWF0KCJ3b2ZmMiIpLCB1cmwoIi8vYXQuYWxpY2RuLmNvbS90L2ZvbnRfMTAzMTE1OF91Njl3OHloeGR1LndvZmY/dD0xNjMwMDMzNzU5OTQ0IikgZm9ybWF0KCJ3b2ZmIiksIHVybCgiLy9hdC5hbGljZG4uY29tL3QvZm9udF8xMDMxMTU4X3U2OXc4eWh4ZHUudHRmP3Q9MTYzMDAzMzc1OTk0NCIpIGZvcm1hdCgidHJ1ZXR5cGUiKTsgfSYjeGE7PC9zdHlsZT48L2RlZnM+PHBhdGggZmlsbD0iIzRBOTE5QiIgZD0iTTY3MC43MiAzODkuMTJhNi4xNDQgNi4xNDQgMCAwIDAgNS43MzQ0LTguNjAxNiA1MC41ODU2IDUwLjU4NTYgMCAwIDAtOTEuNzUwNCAwIDYuMTQ0IDYuMTQ0IDAgMCAwIDUuNzM0NCA4LjYwMTZ6Ii8+PHBhdGggZmlsbD0iIzRBOTE5QiIgZD0iTTYzMC41NzkyIDMxOC40NjRtLTMxLjc0NCAwYTMxLjc0NCAzMS43NDQgMCAxIDAgNjMuNDg4IDAgMzEuNzQ0IDMxLjc0NCAwIDEgMC02My40ODggMFoiLz48cGF0aCBmaWxsPSIjNEE5MTlCIiBkPSJNMzY3LjQxMTIgMjk2Ljk2bTE1LjM2IDBsMTA3LjcyNDggMHExNS4zNiAwIDE1LjM2IDE1LjM2bDAgMHEwIDE1LjM2LTE1LjM2IDE1LjM2bC0xMDcuNzI0OCAwcS0xNS4zNiAwLTE1LjM2LTE1LjM2bDAgMHEwLTE1LjM2IDE1LjM2LTE1LjM2WiIvPjxwYXRoIGZpbGw9IiM0QTkxOUIiIGQ9Ik0zNjcuNDExMiAzNTguNG0xNS4zNiAwbDEwNy43MjQ4IDBxMTUuMzYgMCAxNS4zNiAxNS4zNmwwIDBxMCAxNS4zNi0xNS4zNiAxNS4zNmwtMTA3LjcyNDggMHEtMTUuMzYgMC0xNS4zNi0xNS4zNmwwIDBxMC0xNS4zNiAxNS4zNi0xNS4zNloiLz48cGF0aCBmaWxsPSIjNEE5MTlCIiBkPSJNMzY3LjQxMTIgNDE5Ljg0bTE1LjM2IDBsMjEwLjEyNDggMHExNS4zNiAwIDE1LjM2IDE1LjM2bDAgMHEwIDE1LjM2LTE1LjM2IDE1LjM2bC0yMTAuMTI0OCAwcS0xNS4zNiAwLTE1LjM2LTE1LjM2bDAgMHEwLTE1LjM2IDE1LjM2LTE1LjM2WiIvPjxwYXRoIGZpbGw9IiM0QTkxOUIiIGQ9Ik03NDQuNjUyOCA5NDIuMDhIMjk5LjgyNzJBOTUuMDI3MiA5NS4wMjcyIDAgMCAxIDIwNC44IDg0Ny4wNTI4VjE3Ni45NDcyQTk1LjAyNzIgOTUuMDI3MiAwIDAgMSAyOTkuODI3MiA4MS45Mmg0NDQuODI1NkE5NS4wMjcyIDk1LjAyNzIgMCAwIDEgODM5LjY4IDE3Ni45NDcydjY3MC4xMDU2QTk1LjAyNzIgOTUuMDI3MiAwIDAgMSA3NDQuNjUyOCA5NDIuMDh6TTI5OS44MjcyIDEyMi44OEE1NC4wNjcyIDU0LjA2NzIgMCAwIDAgMjQ1Ljc2IDE3Ni45NDcydjY3MC4xMDU2QTU0LjA2NzIgNTQuMDY3MiAwIDAgMCAyOTkuODI3MiA5MDEuMTJoNDQ0LjgyNTZBNTQuMDY3MiA1NC4wNjcyIDAgMCAwIDc5OC43MiA4NDcuMDUyOFYxNzYuOTQ3MkE1NC4wNjcyIDU0LjA2NzIgMCAwIDAgNzQ0LjY1MjggMTIyLjg4eiIvPjxwYXRoIGZpbGw9IiM0QTkxOUIiIGQ9Ik02NjEuMjk5MiA1MzIuNDhIMzgzLjE4MDhBOTYuNjY1NiA5Ni42NjU2IDAgMCAxIDI4Ni43MiA0MzYuMDE5MnYtMTM0Ljc1ODRBOTYuNDYwOCA5Ni40NjA4IDAgMCAxIDM4My4xODA4IDIwNC44aDI3OC4xMTg0QTk2LjQ2MDggOTYuNDYwOCAwIDAgMSA3NTcuNzYgMzAxLjI2MDh2MTM0Ljc1ODRBOTYuNjY1NiA5Ni42NjU2IDAgMCAxIDY2MS4yOTkyIDUzMi40OHpNMzgzLjE4MDggMjQ1Ljc2QTU1LjUwMDggNTUuNTAwOCAwIDAgMCAzMjcuNjggMzAxLjI2MDh2MTM0Ljc1ODRBNTUuNTAwOCA1NS41MDA4IDAgMCAwIDM4My4xODA4IDQ5MS41MmgyNzguMTE4NEE1NS41MDA4IDU1LjUwMDggMCAwIDAgNzE2LjggNDM2LjAxOTJ2LTEzNC43NTg0QTU1LjUwMDggNTUuNTAwOCAwIDAgMCA2NjEuMjk5MiAyNDUuNzZ6TTU3OS45OTM2IDY3NC40MDY0YTEwMi40IDEwMi40IDAgMCAxIDExLjI2NCAwYy0xMC4wMzUyLTQ2LjY5NDQtNTkuODAxNi04MS45Mi0xMTYuNzM2LTgxLjkyLTYzLjQ4OCAwLTExNS43MTIgNDMuNDE3Ni0xMTUuNzEyIDk4LjMwNGE5NC44MjI0IDk0LjgyMjQgMCAwIDAgNDYuMjg0OCA3OC4wMjg4bC0xMS40Njg4IDM0LjgxNiA0MC45Ni0yMC40OGExOTkuMDY1NiAxOTkuMDY1NiAwIDAgMCA0MC45NiA1LjczNDRoMTAuODU0NGE4Ni42MzA0IDg2LjYzMDQgMCAwIDEtMy40ODE2LTI0LjE2NjQgOTQuODIyNCA5NC44MjI0IDAgMCAxIDk4LjMwNC05MS41NDU2eiBtLTYxLjQ0LTMxLjMzNDRhMTQuNTQwOCAxNC41NDA4IDAgMSAxIDAgMjguODc2OCAxNC43NDU2IDE0Ljc0NTYgMCAxIDEgMC0yOC44NzY4eiBtLTgxLjkyIDI4Ljg3NjhhMTQuNzQ1NiAxNC43NDU2IDAgMSAxIDAtMjguODc2OCAxNC41NDA4IDE0LjU0MDggMCAwIDEgMCAyOC44NzY4eiBtMjQ4LjYyNzIgOTIuNTY5NmMwLTQ2LjI4NDgtNDYuMjg0OC04My45NjgtOTguMzA0LTgzLjk2OHMtOTguMzA0IDM3LjY4MzItOTguMzA0IDgzLjk2OCA0My40MTc2IDgzLjk2OCA5OC4zMDQgODMuOTY4YTE0NS4yMDMyIDE0NS4yMDMyIDAgMCAwIDM0LjYxMTItNS43MzQ0bDMxLjc0NCAxNy40MDgtOC42MDE2LTI4Ljg3NjhhODcuNjU0NCA4Ny42NTQ0IDAgMCAwIDQwLjk2LTY2LjU2eiBtLTEzMC4yNTI4LTE0LjU0MDhhMTEuNDY4OCAxMS40Njg4IDAgMSAxIDAtMjMuMTQyNCAxMS44Nzg0IDExLjg3ODQgMCAxIDEgMCAyMy4xNDI0eiBtNjMuNjkyOCAwYTExLjQ2ODggMTEuNDY4OCAwIDAgMSAwLTIzLjE0MjQgMTEuODc4NCAxMS44Nzg0IDAgMSAxIDAgMjMuMTQyNHogbTAgMCIvPjwvc3ZnPg==" parent="1" vertex="1">
          <mxGeometry x="1152" y="483" width="200" height="200" as="geometry" />
        </mxCell>
        <mxCell id="vMkUlVE33MzogZ4WFxeP-1" value="" style="rounded=1;whiteSpace=wrap;html=1;strokeColor=none;fontSize=18;fillColor=#9AC7BF;labelBackgroundColor=none;" parent="1" vertex="1">
          <mxGeometry x="157" y="744" width="286" height="99" as="geometry" />
        </mxCell>
        <mxCell id="vMkUlVE33MzogZ4WFxeP-2" value="" style="rounded=1;whiteSpace=wrap;html=1;strokeColor=none;fontSize=18;fillColor=#9AC7BF;labelBackgroundColor=none;" parent="1" vertex="1">
          <mxGeometry x="1109" y="744" width="286" height="99" as="geometry" />
        </mxCell>
        <mxCell id="vMkUlVE33MzogZ4WFxeP-3" value="" style="curved=1;endArrow=classic;html=1;rounded=0;strokeWidth=10;dashed=1;strokeColor=#808080;" parent="1" edge="1">
          <mxGeometry width="50" height="50" relative="1" as="geometry">
            <mxPoint x="491" y="760" as="sourcePoint" />
            <mxPoint x="1061" y="760" as="targetPoint" />
            <Array as="points">
              <mxPoint x="589" y="724" />
              <mxPoint x="908" y="711" />
            </Array>
          </mxGeometry>
        </mxCell>
        <mxCell id="vMkUlVE33MzogZ4WFxeP-4" value="&lt;font style=&quot;font-size: 43px;&quot;&gt;data&lt;/font&gt;" style="rounded=1;whiteSpace=wrap;html=1;strokeColor=none;fillColor=#4A919B;" parent="1" vertex="1">
          <mxGeometry x="331" y="752" width="100" height="80" as="geometry" />
        </mxCell>
        <mxCell id="vMkUlVE33MzogZ4WFxeP-5" value="&lt;span style=&quot;color: rgb(51, 51, 51); font-family: &amp;quot;open sans&amp;quot;, &amp;quot;clear sans&amp;quot;, &amp;quot;helvetica neue&amp;quot;, helvetica, arial, sans-serif; font-size: 50px;&quot;&gt;send_buffer&lt;/span&gt;" style="text;html=1;strokeColor=none;fillColor=none;align=center;verticalAlign=middle;whiteSpace=wrap;rounded=0;fontSize=43;" parent="1" vertex="1">
          <mxGeometry x="270" y="860" width="60" height="30" as="geometry" />
        </mxCell>
        <mxCell id="vMkUlVE33MzogZ4WFxeP-6" value="&lt;span style=&quot;color: rgb(51, 51, 51); font-family: &amp;quot;open sans&amp;quot;, &amp;quot;clear sans&amp;quot;, &amp;quot;helvetica neue&amp;quot;, helvetica, arial, sans-serif; font-size: 50px;&quot;&gt;recv_buffer&lt;/span&gt;" style="text;html=1;strokeColor=none;fillColor=none;align=center;verticalAlign=middle;whiteSpace=wrap;rounded=0;fontSize=43;" parent="1" vertex="1">
          <mxGeometry x="1232" y="860" width="60" height="30" as="geometry" />
        </mxCell>
        <mxCell id="vMkUlVE33MzogZ4WFxeP-7" value="&lt;font style=&quot;font-size: 43px;&quot;&gt;data&lt;/font&gt;" style="rounded=1;whiteSpace=wrap;html=1;strokeColor=none;fillColor=#4A919B;" parent="1" vertex="1">
          <mxGeometry x="1123" y="753.5" width="100" height="80" as="geometry" />
        </mxCell>
        <mxCell id="vMkUlVE33MzogZ4WFxeP-8" value="" style="curved=1;endArrow=classic;html=1;rounded=0;strokeWidth=10;dashed=1;strokeColor=#808080;" parent="1" edge="1">
          <mxGeometry width="50" height="50" relative="1" as="geometry">
            <mxPoint x="1055" y="833.5" as="sourcePoint" />
            <mxPoint x="485" y="833.5" as="targetPoint" />
            <Array as="points">
              <mxPoint x="957" y="869.5" />
              <mxPoint x="638" y="882.5" />
            </Array>
          </mxGeometry>
        </mxCell>
        <mxCell id="vMkUlVE33MzogZ4WFxeP-9" value="&lt;font style=&quot;font-size: 43px;&quot;&gt;ack&lt;/font&gt;" style="rounded=1;whiteSpace=wrap;html=1;strokeColor=none;fillColor=#4A919B;" parent="1" vertex="1">
          <mxGeometry x="731" y="910" width="100" height="80" as="geometry" />
        </mxCell>
        <mxCell id="vMkUlVE33MzogZ4WFxeP-10" value="&lt;font style=&quot;font-size: 36px;&quot; color=&quot;#808080&quot;&gt;1.接收方收到数据&lt;/font&gt;" style="text;html=1;strokeColor=none;fillColor=none;align=center;verticalAlign=middle;whiteSpace=wrap;rounded=0;fontSize=43;" parent="1" vertex="1">
          <mxGeometry x="834" y="672" width="354" height="30" as="geometry" />
        </mxCell>
        <mxCell id="vMkUlVE33MzogZ4WFxeP-11" value="&lt;font style=&quot;font-size: 38px;&quot; color=&quot;#808080&quot;&gt;2.接收方回ack包&lt;/font&gt;" style="text;html=1;strokeColor=none;fillColor=none;align=center;verticalAlign=middle;whiteSpace=wrap;rounded=0;fontSize=43;" parent="1" vertex="1">
          <mxGeometry x="813.5" y="892" width="354" height="30" as="geometry" />
        </mxCell>
        <mxCell id="vMkUlVE33MzogZ4WFxeP-12" value="" style="shape=image;verticalLabelPosition=bottom;labelBackgroundColor=default;verticalAlign=top;aspect=fixed;imageAspect=0;image=data:image/svg+xml,PHN2ZyB4bWxuczp4bGluaz0iaHR0cDovL3d3dy53My5vcmcvMTk5OS94bGluayIgeG1sbnM9Imh0dHA6Ly93d3cudzMub3JnLzIwMDAvc3ZnIiBoZWlnaHQ9IjIwMCIgd2lkdGg9IjIwMCIgdmVyc2lvbj0iMS4xIiB2aWV3Qm94PSIwIDAgMTAyNCAxMDI0IiBjbGFzcz0iaWNvbiI+PGRlZnM+PHN0eWxlIHR5cGU9InRleHQvY3NzIj5AZm9udC1mYWNlIHsgZm9udC1mYW1pbHk6IGZlZWRiYWNrLWljb25mb250OyBzcmM6IHVybCgiLy9hdC5hbGljZG4uY29tL3QvZm9udF8xMDMxMTU4X3U2OXc4eWh4ZHUud29mZjI/dD0xNjMwMDMzNzU5OTQ0IikgZm9ybWF0KCJ3b2ZmMiIpLCB1cmwoIi8vYXQuYWxpY2RuLmNvbS90L2ZvbnRfMTAzMTE1OF91Njl3OHloeGR1LndvZmY/dD0xNjMwMDMzNzU5OTQ0IikgZm9ybWF0KCJ3b2ZmIiksIHVybCgiLy9hdC5hbGljZG4uY29tL3QvZm9udF8xMDMxMTU4X3U2OXc4eWh4ZHUudHRmP3Q9MTYzMDAzMzc1OTk0NCIpIGZvcm1hdCgidHJ1ZXR5cGUiKTsgfSYjeGE7PC9zdHlsZT48L2RlZnM+PHBhdGggZmlsbD0iI0VENTU2NCIgZD0iTTgzMS45ODkzNzUgMjEuMzM1OTU4aC0xNzAuNjUzNjY3Yy0xMS43ODE5NzcgMC0yMS4zNDM5NTggOS41NjE5ODEtMjEuMzQzOTU4IDIxLjM0Mzk1OXY5MTcuMzEwMjA4YzAgMTEuNTMxOTc3IDQuNzgxOTkxIDMzLjI0OTkzNSAzNi43ODE5MjggNDkuMjQ5OTA0IDE5LjAyOTk2MyA5LjQ5OTk4MSA0My44NDE5MTQgMTQuNzQ5OTcxIDY5Ljg3Mzg2NCAxNC43NDk5NzEgMjYuMDYxOTQ5IDAgNTAuODc1OTAxLTUuMjQ5OTkgNjkuOTA1ODYzLTE0Ljc0OTk3MSAzMS45OTk5MzgtMTUuOTk5OTY5IDM2Ljc4MTkyOC0zNy43MTc5MjYgMzYuNzgxOTI4LTQ5LjI0OTkwNFY0Mi42Nzk5MTdjLTAuMDAyLTExLjc3OTk3Ny05LjU2Mzk4MS0yMS4zNDM5NTgtMjEuMzQ1OTU4LTIxLjM0Mzk1OXpNNTk3LjMzNzgzMyAyMS4zMzU5NThoLTE3MC42ODM2NjZjLTExLjc3OTk3NyAwLTIxLjMxMTk1OCA5LjU2MTk4MS0yMS4zMTE5NTkgMjEuMzQzOTU5djkxNy4zMTAyMDhjMCAxMS41MzE5NzcgNC43ODE5OTEgMzMuMjQ5OTM1IDM2Ljc3OTkyOCA0OS4yNDk5MDQgMTkuMDMxOTYzIDkuNDk5OTgxIDQzLjg0MTkxNCAxNC43NDk5NzEgNjkuODczODY0IDE0Ljc0OTk3MSAyNi4wMjk5NDkgMCA1MC44NzM5MDEtNS4yNDk5OSA2OS44NzM4NjQtMTQuNzQ5OTcxIDMxLjk5OTkzOC0xNS45OTk5NjkgMzYuNzgxOTI4LTM3LjcxNzkyNiAzNi43ODE5MjgtNDkuMjQ5OTA0VjQyLjY3OTkxN2MtMC4wMDItMTEuNzc5OTc3LTkuNTMxOTgxLTIxLjM0Mzk1OC0yMS4zMTM5NTktMjEuMzQzOTU5ek0zNjIuNjU0MjkyIDIxLjMzNTk1OEgxOTIuMDAyNjI1Yy0xMS43ODE5NzcgMC0yMS4zNDM5NTggOS41NjE5ODEtMjEuMzQzOTU4IDIxLjM0Mzk1OXY5MTcuMzEwMjA4YzAgMTEuNTMxOTc3IDQuNzgxOTkxIDMzLjI0OTkzNSAzNi44MTE5MjggNDkuMjQ5OTA0IDE4Ljk5OTk2MyA5LjQ5OTk4MSA0My44MTE5MTQgMTQuNzQ5OTcxIDY5Ljg3Mzg2MyAxNC43NDk5NzEgMjYuMDMxOTQ5IDAgNTAuODQxOTAxLTUuMjQ5OTkgNjkuODczODY0LTE0Ljc0OTk3MSAzMS45OTk5MzgtMTUuOTk5OTY5IDM2Ljc3OTkyOC0zNy43MTc5MjYgMzYuNzc5OTI4LTQ5LjI0OTkwNFY0Mi42Nzk5MTdjMC0xMS43Nzk5NzctOS41NjE5ODEtMjEuMzQzOTU4LTIxLjM0Mzk1OC0yMS4zNDM5NTl6Ii8+PHBhdGggb3BhY2l0eT0iLjIiIGZpbGw9IiNGRkZGRkYiIGQ9Ik04MzEuOTg5Mzc1IDIxLjMzNTk1OGgtMjEuMzQzOTU4YzExLjc4MTk3NyAwIDIxLjM0Mzk1OCA5LjU2MTk4MSAyMS4zNDM5NTggMjEuMzQzOTU5djkxNy4zMTAyMDhjMCAxMS41MzE5NzctNC43ODE5OTEgMzMuMjQ5OTM1LTM2Ljc4MTkyOCA0OS4yNDk5MDQtMTYuNDA1OTY4IDguMTg3OTg0LTM3LjEyMzkyNyAxMy4yMTc5NzQtNTkuMjE3ODg0IDE0LjQzNzk3MiAzLjUzMTk5MyAwLjE4OCA3LjA5Mzk4NiAwLjMxMTk5OSAxMC42NTU5NzkgMC4zMTE5OTkgMjYuMDYxOTQ5IDAgNTAuODc1OTAxLTUuMjQ5OTkgNjkuOTA1ODYzLTE0Ljc0OTk3MSAzMS45OTk5MzgtMTUuOTk5OTY5IDM2Ljc4MTkyOC0zNy43MTc5MjYgMzYuNzgxOTI4LTQ5LjI0OTkwNFY0Mi42Nzk5MTdjMC0xMS43Nzk5NzctOS41NjE5ODEtMjEuMzQzOTU4LTIxLjM0Mzk1OC0yMS4zNDM5NTl6TTU5Ny4zMzc4MzMgMjEuMzM1OTU4aC0yMS4zNDM5NThjMTEuNzgxOTc3IDAgMjEuMzQzOTU4IDkuNTYxOTgxIDIxLjM0Mzk1OCAyMS4zNDM5NTl2OTE3LjMxMDIwOGMwIDExLjUzMTk3Ny00Ljc4MTk5MSAzMy4yNDk5MzUtMzYuNzgxOTI4IDQ5LjI0OTkwNC0xNi40MDU5NjggOC4xODc5ODQtMzcuMTIzOTI3IDEzLjIxNzk3NC01OS4yMTU4ODQgMTQuNDM3OTcyIDMuNTMxOTkzIDAuMTg4IDcuMDYxOTg2IDAuMzExOTk5IDEwLjY1NTk3OSAwLjMxMTk5OSAyNi4wMjk5NDkgMCA1MC44NzM5MDEtNS4yNDk5OSA2OS44NzM4NjQtMTQuNzQ5OTcxIDMxLjk5OTkzOC0xNS45OTk5NjkgMzYuNzgxOTI4LTM3LjcxNzkyNiAzNi43ODE5MjgtNDkuMjQ5OTA0VjQyLjY3OTkxN2MtMC4wMDItMTEuNzc5OTc3LTkuNTMxOTgxLTIxLjM0Mzk1OC0yMS4zMTM5NTktMjEuMzQzOTU5ek0zNjIuNjU0MjkyIDIxLjMzNTk1OGgtMjEuMzExOTU5YzExLjc4MTk3NyAwIDIxLjMxMTk1OCA5LjU2MTk4MSAyMS4zMTE5NTkgMjEuMzQzOTU5djkxNy4zMTAyMDhjMCAxMS41MzE5NzctNC43Nzk5OTEgMzMuMjQ5OTM1LTM2Ljc3OTkyOCA0OS4yNDk5MDQtMTYuNDA1OTY4IDguMTg3OTg0LTM3LjEyMzkyNyAxMy4yMTc5NzQtNTkuMjE3ODg1IDE0LjQzNzk3MiAzLjUzMTk5MyAwLjE4OCA3LjA5Mzk4NiAwLjMxMTk5OSAxMC42ODc5NzkgMC4zMTE5OTkgMjYuMDMxOTQ5IDAgNTAuODQxOTAxLTUuMjQ5OTkgNjkuODczODY0LTE0Ljc0OTk3MSAzMS45OTk5MzgtMTUuOTk5OTY5IDM2Ljc3OTkyOC0zNy43MTc5MjYgMzYuNzc5OTI4LTQ5LjI0OTkwNFY0Mi42Nzk5MTdjMC0xMS43Nzk5NzctOS41NjE5ODEtMjEuMzQzOTU4LTIxLjM0Mzk1OC0yMS4zNDM5NTl6Ii8+PHBhdGggZmlsbD0iI0RBNDQ1MyIgZD0iTTgxNi41NTE0MDUgOS44MzU5ODFDNzk3LjUxOTQ0MiAzLjQ5MTk5MyA3NzIuNzA3NDkxIDAuMDA4IDc0Ni42NDU1NDIgMC4wMDhjLTI2LjAzMTk0OSAwLTUwLjg0MzkwMSAzLjQ4Mzk5My02OS44NzM4NjQgOS44Mjc5ODEtMjMuNzE3OTU0IDcuOTA1OTg1LTM2Ljc4MTkyOCAxOS41Nzc5NjItMzYuNzgxOTI4IDMyLjg0MzkzNnMxMy4wNjE5NzQgMjQuOTIxOTUxIDM2Ljc4MTkyOCAzMi44Mjc5MzZjMTkuMDI5OTYzIDYuMzQxOTg4IDQzLjg0MTkxNCA5LjgyNzk4MSA2OS44NzM4NjQgOS44Mjc5OCAyNi4wNjE5NDkgMCA1MC44NzU5MDEtMy40ODM5OTMgNjkuOTA1ODYzLTkuODI3OTggMjMuNzE3OTU0LTcuOTA1OTg1IDM2Ljc4MTkyOC0xOS41NjE5NjIgMzYuNzgxOTI4LTMyLjgyNzkzNnMtMTMuMDYxOTc0LTI0LjkzNTk1MS0zNi43ODE5MjgtMzIuODQzOTM2ek01ODEuODY5ODY0IDkuODM1OTgxYy0xOC45OTk5NjMtNi4zNDM5ODgtNDMuODQzOTE0LTkuODI3OTgxLTY5Ljg3Mzg2NC05LjgyNzk4MS0yNi4wMzE5NDkgMC01MC44NDE5MDEgMy40ODM5OTMtNjkuODczODY0IDkuODI3OTgxLTIzLjcxNzk1NCA3LjkwNTk4NS0zNi43Nzk5MjggMTkuNTc3OTYyLTM2Ljc3OTkyOCAzMi44NDM5MzZzMTMuMDYxOTc0IDI0LjkyMTk1MSAzNi43Nzk5MjggMzIuODI3OTM2YzE5LjAzMTk2MyA2LjM0MTk4OCA0My44NDE5MTQgOS44Mjc5ODEgNjkuODczODY0IDkuODI3OTggMjYuMDI5OTQ5IDAgNTAuODczOTAxLTMuNDgzOTkzIDY5Ljg3Mzg2NC05LjgyNzk4IDIzLjcxNzk1NC03LjkwNTk4NSAzNi43ODE5MjgtMTkuNTYxOTYyIDM2Ljc4MTkyOC0zMi44Mjc5MzZzLTEzLjA2Mzk3NC0yNC45MzU5NTEtMzYuNzgxOTI4LTMyLjg0MzkzNnpNMzQ3LjIxODMyMiA5LjgzNTk4MUMzMjguMTg2MzU5IDMuNDkxOTkzIDMwMy4zNzY0MDcgMC4wMDggMjc3LjM0NDQ1OCAwLjAwOGMtMjYuMDYxOTQ5IDAtNTAuODczOTAxIDMuNDgzOTkzLTY5Ljg3Mzg2MyA5LjgyNzk4MS0yMy43MTc5NTQgNy45MDc5ODUtMzYuODExOTI4IDE5LjU3OTk2Mi0zNi44MTE5MjggMzIuODQzOTM2czEzLjA5Mzk3NCAyNC45MjE5NTEgMzYuODExOTI4IDMyLjgyNzkzNmMxOC45OTk5NjMgNi4zNDE5ODggNDMuODExOTE0IDkuODI3OTgxIDY5Ljg3Mzg2MyA5LjgyNzk4IDI2LjAzMTk0OSAwIDUwLjg0MTkwMS0zLjQ4Mzk5MyA2OS44NzM4NjQtOS44Mjc5OCAyMy43MTc5NTQtNy45MDU5ODUgMzYuNzc5OTI4LTE5LjU2MTk2MiAzNi43Nzk5MjgtMzIuODI3OTM2cy0xMy4wNjE5NzQtMjQuOTM1OTUxLTM2Ljc3OTkyOC0zMi44NDM5MzZ6Ii8+PHBhdGggZmlsbD0iIzQzNEE1NCIgZD0iTTg2My44OTMzMTMgMzg2LjgxNTI0NWEyMS4wNDk5NTkgMjEuMDQ5OTU5IDAgMCAwLTEwLjU1OTk4LTIuNzk1OTk1djQ3LjQwNTkwN2M0LjE1NTk5MiAzLjU2MTk5MyA3LjQ5Nzk4NSA3LjE4Nzk4NiA4LjcxNTk4MyA5LjY4NTk4MS0yLjQ5OTk5NSAyLjQ4Mzk5NS0xMi4zNzM5NzYgOS45MDU5ODEtNDUuNDAzOTExIDE2LjQzNzk2OC0zOS41MzE5MjMgNy44Mjc5ODUtOTguOTY3ODA3IDExLjc4MTk3Ny0xNzYuNjUzNjU1IDExLjc4MTk3Ny0xMS43Nzk5NzcgMC0yMS4zNDE5NTggOS41NjE5ODEtMjEuMzQxOTU4IDIxLjM0Mzk1OVM2MjguMjExNzczIDUxMS45OTkgNjM5Ljk5MTc1IDUxMS45OTljODYuMjc5ODMxIDAgMTUxLjU1OTcwNC00Ljg3NTk5IDE5My45MzU2MjEtMTQuNDk5OTcyIDI2LjM3Mzk0OC01Ljk4Mzk4OCA2Mi4zMDk4NzgtMTcuMjMzOTY2IDY5Ljg3Mzg2NC00NS43MTc5MSA5LjI3OTk4Mi0zNC44NDE5MzItMzEuNTkzOTM4LTYwLjIzMTg4Mi0zOS45MDc5MjItNjQuOTY1ODczek04NjMuODkzMzEzIDYwMC4xMjI4MjhhMjEuMTM5OTU5IDIxLjEzOTk1OSAwIDAgMC0xMC41NTk5OC0yLjc0OTk5NXY0Ny4zNzU5MDhjNC4xNTU5OTIgMy41NjE5OTMgNy40OTc5ODUgNy4xODc5ODYgOC43MTU5ODMgOS42ODc5ODEtMi40OTk5OTUgMi40OTk5OTUtMTIuMzczOTc2IDkuOTMzOTgxLTQ1LjQwMzkxMSAxNi40MzM5NjgtMzkuNTMxOTIzIDcuODExOTg1LTk4Ljk2NzgwNyAxMS44MTE5NzctMTc2LjY1MzY1NSAxMS44MTE5NzctMTEuNzc5OTc3IDAtMjEuMzQxOTU4IDkuNTMxOTgxLTIxLjM0MTk1OCAyMS4zMTE5NThzOS41NjE5ODEgMjEuMzExOTU4IDIxLjM0MTk1OCAyMS4zMTE5NThjODYuMjc5ODMxIDAgMTUxLjU1OTcwNC00Ljg3NTk5IDE5My45MzU2MjEtMTQuNDk5OTcxIDI2LjM3Mzk0OC01Ljk2Nzk4OCA2Mi4zMDk4NzgtMTcuMjE3OTY2IDY5Ljg3Mzg2NC00NS42ODc5MTEgOS4yNzk5ODItMzQuODY5OTMyLTMxLjU5MzkzOC02MC4yNDM4ODItMzkuOTA3OTIyLTY0Ljk5NTg3M3pNMzgzLjk5ODI1IDQ2OS4zMjkwODNjLTc3LjY4NTg0OCAwLTEzNy4xMjE3MzItMy45NTM5OTItMTc2LjY1MzY1NS0xMS43ODE5NzctMzMuMDI5OTM1LTYuNTMxOTg3LTQyLjkwNTkxNi0xMy45NTM5NzMtNDUuNDA1OTExLTE2LjQzNzk2OCAxLjIxNzk5OC0yLjQ5OTk5NSA0LjU2MTk5MS02LjEyMzk4OCA4LjcxNzk4My05LjY4NTk4MXYtNDcuNDA1OTA3Yy0zLjU5Mzk5MyAwLTcuMjE3OTg2IDAuODg5OTk4LTEwLjU2MTk4IDIuNzk1OTk1LTguMjgxOTg0IDQuNzMzOTkxLTQ5LjE1NTkwNCAzMC4xMjM5NDEtMzkuOTA1OTIyIDY0Ljk2NTg3MyA3LjU2MTk4NSAyOC40ODM5NDQgNDMuNDk5OTE1IDM5LjczMzkyMiA2OS44NzM4NjQgNDUuNzE3OTEgNDIuNDA1OTE3IDkuNjIzOTgxIDEwNy42NTM3OSAxNC40OTk5NzIgMTkzLjkzMzYyMSAxNC40OTk5NzIgMTEuNzgxOTc3IDAgMjEuMzQzOTU4LTkuNTQ1OTgxIDIxLjM0Mzk1OC0yMS4zMjc5NThzLTkuNTU5OTgxLTIxLjMzOTk1OC0yMS4zNDE5NTgtMjEuMzM5OTU5ek0zODMuOTk4MjUgNjgyLjY4MjY2N2MtNzcuNjg1ODQ4IDAtMTM3LjEyMTczMi0zLjk5OTk5Mi0xNzYuNjUzNjU1LTExLjgxMTk3Ny0zMy4wMjk5MzUtNi40OTk5ODctNDIuOTA1OTE2LTEzLjkzMzk3My00NS40MDU5MTEtMTYuNDMzOTY4IDEuMjE3OTk4LTIuNDk5OTk1IDQuNTYxOTkxLTYuMTIzOTg4IDguNzE3OTgzLTkuNjg3OTgxdi00Ny40MDU5MDhjLTMuNTkzOTkzIDAtNy4yMTc5ODYgMC45MDU5OTgtMTAuNTYxOTggMi43ODE5OTUtOC4yODE5ODQgNC43NDk5OTEtNDkuMTU1OTA0IDMwLjEyMzk0MS0zOS45MDU5MjIgNjQuOTk1ODczIDcuNTYxOTg1IDI4LjQ2Nzk0NCA0My40OTk5MTUgMzkuNzE3OTIyIDY5Ljg3Mzg2NCA0NS42ODc5MTEgNDIuNDA1OTE3IDkuNjIzOTgxIDEwNy42NTM3OSAxNC40OTk5NzIgMTkzLjkzMzYyMSAxNC40OTk5NzEgMTEuNzgxOTc3IDAgMjEuMzQzOTU4LTkuNTMxOTgxIDIxLjM0Mzk1OC0yMS4zMTE5NThzLTkuNTU5OTgxLTIxLjMxMzk1OC0yMS4zNDE5NTgtMjEuMzEzOTU4eiIvPjxwYXRoIGZpbGw9IiM0MzRBNTQiIGQ9Ik01OTcuMzM3ODMzIDM0MS4zMzEzMzNoLTE3MC42ODM2NjZjLTM1LjI3OTkzMSAwLTYzLjk5OTg3NSAyOC43MTc5NDQtNjMuOTk5ODc1IDYzLjk5OTg3NXYzNDEuMzUxMzM0YzAgMzUuMjQ5OTMxIDI4LjcxNzk0NCA2My45OTk4NzUgNjMuOTk5ODc1IDYzLjk5OTg3NWgxNzAuNjgzNjY2YzM1LjI4MTkzMSAwIDYzLjk5Nzg3NS0yOC43NDk5NDQgNjMuOTk3ODc1LTYzLjk5OTg3NVY0MDUuMzMxMjA4YzAtMzUuMjgxOTMxLTI4LjcxNTk0NC02My45OTk4NzUtNjMuOTk3ODc1LTYzLjk5OTg3NXoiLz48cGF0aCBmaWxsPSIjNjU2RDc4IiBkPSJNNTk3LjMzNzgzMyAzMjAuMDAzMzc1aC0xNzAuNjgzNjY2Yy0zNS4yNzk5MzEgMC02My45OTk4NzUgMjguNzAxOTQ0LTYzLjk5OTg3NSA2My45OTk4NzV2MzQxLjMwNTMzM2MwIDM1LjMxMTkzMSAyOC43MTc5NDQgNjMuOTk5ODc1IDYzLjk5OTg3NSA2My45OTk4NzVoMTcwLjY4MzY2NmMzNS4yODE5MzEgMCA2My45OTc4NzUtMjguNjg3OTQ0IDYzLjk5Nzg3NS02My45OTk4NzVWMzg0LjAwMTI1YzAtMzUuMjk1OTMxLTI4LjcxNTk0NC02My45OTc4NzUtNjMuOTk3ODc1LTYzLjk5Nzg3NXoiLz48cGF0aCBmaWxsPSIjRTZFOUVEIiBkPSJNNDY5LjM0MDA4MyA1NzUuOTk4ODc1YzAgMTEuNzgxOTc3LTkuNTYxOTgxIDIxLjMxMTk1OC0yMS4zNDM5NTggMjEuMzExOTU4UzQyNi42NTIxNjcgNTg3Ljc3ODg1MiA0MjYuNjUyMTY3IDU3NS45OTg4NzVzOS41NjE5ODEtMjEuMzExOTU4IDIxLjM0Mzk1OC0yMS4zMTE5NThTNDY5LjM0MDA4MyA1NjQuMjE2ODk4IDQ2OS4zNDAwODMgNTc1Ljk5ODg3NXpNNTMzLjMzNzk1OCA1NzUuOTk4ODc1YzAgMTEuNzgxOTc3LTkuNTYxOTgxIDIxLjMxMTk1OC0yMS4zNDE5NTggMjEuMzExOTU4LTExLjc4MTk3NyAwLTIxLjM0Mzk1OC05LjUzMTk4MS0yMS4zNDM5NTgtMjEuMzExOTU4czkuNTYxOTgxLTIxLjMxMTk1OCAyMS4zNDM5NTgtMjEuMzExOTU4YzExLjc3OTk3NyAwIDIxLjM0MTk1OCA5LjUyOTk4MSAyMS4zNDE5NTggMjEuMzExOTU4ek01OTcuMzM3ODMzIDU3NS45OTg4NzVjMCAxMS43ODE5NzctOS41NjE5ODEgMjEuMzExOTU4LTIxLjM0Mzk1OCAyMS4zMTE5NThTNTU0LjY0OTkxNyA1ODcuNzc4ODUyIDU1NC42NDk5MTcgNTc1Ljk5ODg3NXM5LjU2MTk4MS0yMS4zMTE5NTggMjEuMzQzOTU4LTIxLjMxMTk1OCAyMS4zNDM5NTggOS41Mjk5ODEgMjEuMzQzOTU4IDIxLjMxMTk1OHpNNDY5LjM0MDA4MyA2MzkuOTk4NzVjMCAxMS43ODE5NzctOS41NjE5ODEgMjEuMzExOTU4LTIxLjM0Mzk1OCAyMS4zMTE5NThTNDI2LjY1MjE2NyA2NTEuNzc4NzI3IDQyNi42NTIxNjcgNjM5Ljk5ODc1czkuNTYxOTgxLTIxLjMxMTk1OCAyMS4zNDM5NTgtMjEuMzExOTU4UzQ2OS4zNDAwODMgNjI4LjIxNjc3MyA0NjkuMzQwMDgzIDYzOS45OTg3NXpNNTMzLjMzNzk1OCA2MzkuOTk4NzVjMCAxMS43ODE5NzctOS41NjE5ODEgMjEuMzExOTU4LTIxLjM0MTk1OCAyMS4zMTE5NTgtMTEuNzgxOTc3IDAtMjEuMzQzOTU4LTkuNTMxOTgxLTIxLjM0Mzk1OC0yMS4zMTE5NThzOS41NjE5ODEtMjEuMzExOTU4IDIxLjM0Mzk1OC0yMS4zMTE5NThjMTEuNzc5OTc3IDAgMjEuMzQxOTU4IDkuNTI5OTgxIDIxLjM0MTk1OCAyMS4zMTE5NTh6TTU5Ny4zMzc4MzMgNjM5Ljk5ODc1YzAgMTEuNzgxOTc3LTkuNTYxOTgxIDIxLjMxMTk1OC0yMS4zNDM5NTggMjEuMzExOTU4UzU1NC42NDk5MTcgNjUxLjc3ODcyNyA1NTQuNjQ5OTE3IDYzOS45OTg3NXM5LjU2MTk4MS0yMS4zMTE5NTggMjEuMzQzOTU4LTIxLjMxMTk1OCAyMS4zNDM5NTggOS41Mjk5ODEgMjEuMzQzOTU4IDIxLjMxMTk1OHoiLz48cGF0aCBmaWxsPSIjQTBENDY4IiBkPSJNNDA1LjM0MjIwOCAzODQuMDAxMjVoMjEzLjMwNzU4NFY1MTEuOTk5SDQwNS4zNDIyMDh6Ii8+PHBhdGggZmlsbD0iI0U2RTlFRCIgZD0iTTQ2OS4zNDAwODMgNzAzLjk5NDYyNWMwIDExLjc4MTk3Ny05LjU2MTk4MSAyMS4zMTE5NTgtMjEuMzQzOTU4IDIxLjMxMTk1OHMtMjEuMzQzOTU4LTkuNTMxOTgxLTIxLjM0Mzk1OC0yMS4zMTE5NTggOS41NjE5ODEtMjEuMzExOTU4IDIxLjM0Mzk1OC0yMS4zMTE5NTggMjEuMzQzOTU4IDkuNTI5OTgxIDIxLjM0Mzk1OCAyMS4zMTE5NTh6TTUzMy4zMzc5NTggNzAzLjk5NDYyNWMwIDExLjc4MTk3Ny05LjU2MTk4MSAyMS4zMTE5NTgtMjEuMzQxOTU4IDIxLjMxMTk1OC0xMS43ODE5NzcgMC0yMS4zNDM5NTgtOS41MzE5ODEtMjEuMzQzOTU4LTIxLjMxMTk1OHM5LjU2MTk4MS0yMS4zMTE5NTggMjEuMzQzOTU4LTIxLjMxMTk1OGMxMS43Nzk5NzcgMCAyMS4zNDE5NTggOS41Mjk5ODEgMjEuMzQxOTU4IDIxLjMxMTk1OHpNNTk3LjMzNzgzMyA3MDMuOTk0NjI1YzAgMTEuNzgxOTc3LTkuNTYxOTgxIDIxLjMxMTk1OC0yMS4zNDM5NTggMjEuMzExOTU4cy0yMS4zNDM5NTgtOS41MzE5ODEtMjEuMzQzOTU4LTIxLjMxMTk1OCA5LjU2MTk4MS0yMS4zMTE5NTggMjEuMzQzOTU4LTIxLjMxMTk1OCAyMS4zNDM5NTggOS41Mjk5ODEgMjEuMzQzOTU4IDIxLjMxMTk1OHoiLz48L3N2Zz4=;" parent="1" vertex="1">
          <mxGeometry x="1286" y="555" width="104" height="104" as="geometry" />
        </mxCell>
        <mxCell id="vMkUlVE33MzogZ4WFxeP-13" value="" style="curved=1;endArrow=classic;html=1;rounded=0;dashed=1;fontSize=36;fontColor=#808080;strokeColor=#808080;strokeWidth=6;" parent="1" edge="1">
          <mxGeometry width="50" height="50" relative="1" as="geometry">
            <mxPoint x="1259.5" y="741" as="sourcePoint" />
            <mxPoint x="1262.5" y="669" as="targetPoint" />
            <Array as="points">
              <mxPoint x="1264.5" y="720" />
            </Array>
          </mxGeometry>
        </mxCell>
        <mxCell id="vMkUlVE33MzogZ4WFxeP-15" value="&lt;font style=&quot;font-size: 36px;&quot; color=&quot;#808080&quot;&gt;4.接收方准备&lt;br&gt;收数据时&lt;br&gt;发生崩溃&lt;/font&gt;" style="text;html=1;strokeColor=none;fillColor=none;align=center;verticalAlign=middle;whiteSpace=wrap;rounded=0;fontSize=43;" parent="1" vertex="1">
          <mxGeometry x="1365" y="629.5" width="226" height="204" as="geometry" />
        </mxCell>
        <mxCell id="vMkUlVE33MzogZ4WFxeP-17" value="&lt;font style=&quot;font-size: 35px;&quot; color=&quot;#808080&quot;&gt;3.发送方收到ack包丢弃数据&lt;br&gt;&lt;/font&gt;" style="text;html=1;strokeColor=none;fillColor=none;align=center;verticalAlign=middle;whiteSpace=wrap;rounded=0;fontSize=43;" parent="1" vertex="1">
          <mxGeometry x="164" y="691" width="442" height="30" as="geometry" />
        </mxCell>
      </root>
    </mxGraphModel>
  </diagram>
</mxfile>
